<?xml version="1.0" standalone="no"?>
<!DOCTYPE svg PUBLIC "-//W3C//DTD SVG 20010904//EN"
 "http://www.w3.org/TR/2001/REC-SVG-20010904/DTD/svg10.dtd">
<svg version="1.0" xmlns="http://www.w3.org/2000/svg"
 width="51.000000pt" height="52.000000pt" viewBox="0 0 51.000000 52.000000"
 preserveAspectRatio="xMidYMid meet">
<metadata>
Created by potrace 1.16, written by Peter Selinger 2001-2019
</metadata>
<g transform="translate(0.000000,52.000000) scale(0.004722,-0.004815)"
fill="#000000" stroke="none">
<path d="M0 5400 l0 -5400 5400 0 5400 0 0 5400 0 5400 -5400 0 -5400 0 0
-5400z m5052 2075 c913 -158 1460 -1094 1152 -1970 -110 -311 -350 -603 -640
-778 -331 -199 -755 -258 -1139 -158 -509 132 -915 534 -1056 1046 -48 172
-64 436 -38 608 27 178 93 369 180 522 175 305 465 549 789 663 239 84 512
108 752 67z m1721 -3373 l667 -667 -53 -53 -52 -52 -670 670 -670 670 50 50
c27 27 52 50 55 50 3 0 305 -300 673 -668z"/>
<path d="M4652 7338 c-225 -24 -461 -118 -652 -258 -75 -56 -230 -212 -281
-285 -144 -203 -227 -429 -248 -673 -59 -674 392 -1281 1059 -1427 115 -25
354 -31 477 -11 550 87 987 500 1108 1046 22 102 31 359 16 458 -72 458 -333
818 -739 1021 -219 110 -490 157 -740 129z"/>
</g>
</svg>
